<?xml version="1.0" standalone="no"?><!DOCTYPE svg PUBLIC "-//W3C//DTD SVG 1.1//EN" "http://www.w3.org/Graphics/SVG/1.1/DTD/svg11.dtd"><svg t="1643196570521" class="icon" viewBox="0 0 1024 1024" version="1.1" xmlns="http://www.w3.org/2000/svg" p-id="2051" xmlns:xlink="http://www.w3.org/1999/xlink" width="200" height="200"><defs><style type="text/css"></style></defs><path d="M876.448 224.928 146.912 224.928c-45.28 0-82.112 37.696-82.112 84.032l0 439.904c0 46.336 37.344 84.064 83.264 84.064l199.296 0c33.888 0 64.096-20.48 77.056-52.32l57.888-144.896c5.152-12.672 17.152-20.832 30.56-20.832 13.376 0 25.344 8.192 30.4 20.672l58.016 145.28c12.672 31.2 43.232 52.128 75.968 52.128l199.232 0c46.496 0 84.352-37.728 84.352-84.064L960.832 308.96C960.768 262.656 922.944 224.928 876.448 224.928zM896.768 748.864c0 11.264-8.928 20.064-20.352 20.064l-199.232 0c-6.88 0-13.76-5.024-16.608-12.064l-58.016-145.28c-15.04-36.864-50.24-60.704-89.792-60.704-39.552 0-74.816 23.84-89.92 60.896l-57.888 144.896c-3.04 7.424-9.984 12.256-17.696 12.256L148.032 768.928c-10.624 0-19.264-8.992-19.264-20.064L128.768 308.96c0-10.656 8.48-20.032 18.112-20.032l729.536 0c11.392 0 20.352 8.8 20.352 20.032L896.768 748.864z" p-id="2052" fill="#d81e06"></path><path d="M722.432 496.064m-80 0a2.5 2.5 0 1 0 160 0 2.5 2.5 0 1 0-160 0Z" p-id="2053" fill="#d81e06"></path><path d="M303.936 496.064m-80 0a2.5 2.5 0 1 0 160 0 2.5 2.5 0 1 0-160 0Z" p-id="2054" fill="#d81e06"></path></svg>